<?xml version="1.0" standalone="no"?>
<!DOCTYPE svg PUBLIC "-//W3C//DTD SVG 20010904//EN"
 "http://www.w3.org/TR/2001/REC-SVG-20010904/DTD/svg10.dtd">
<svg version="1.0" xmlns="http://www.w3.org/2000/svg"
 width="32.000000pt" height="32.000000pt" viewBox="0 0 32.000000 32.000000"
 preserveAspectRatio="xMidYMid meet">

<g transform="translate(0.000000,32.000000) scale(0.100000,-0.100000)"
fill="#000000" stroke="none">
<path d="M105 289 c-30 -17 -45 -40 -45 -69 0 -33 23 -55 79 -75 59 -21 71
-19 71 9 0 20 -8 27 -42 38 -32 9 -44 19 -46 36 -3 19 1 22 32 22 25 0 40 -6
48 -20 15 -24 58 -27 58 -5 0 9 -9 15 -24 15 -19 0 -25 6 -28 28 -3 24 -8 27
-43 29 -22 2 -49 -2 -60 -8z"/>
<path d="M50 100 c0 -45 88 -91 140 -75 11 4 20 15 20 26 0 16 -7 19 -40 19
-31 0 -43 5 -56 25 -21 32 -64 35 -64 5z"/>
</g>
</svg>
